<svg width="19" height="18" viewBox="0 0 19 18" fill="none" xmlns="http://www.w3.org/2000/svg">
<path fill-rule="evenodd" clip-rule="evenodd" d="M9.5 18C14.4707 18 18.5 13.9707 18.5 9C18.5 4.0293 14.4707 0 9.5 0C4.5293 0 0.5 4.0293 0.5 9C0.5 13.9707 4.5293 18 9.5 18ZM12.6824 5.8176C12.8514 5.64884 13.0805 5.55413 13.3193 5.5543C13.5582 5.55447 13.7871 5.6495 13.9559 5.8185C14.1247 5.9875 14.2194 6.21661 14.2192 6.45544C14.219 6.69426 14.124 6.92324 13.955 7.092L8.8673 12.1797L8.8637 12.1833C8.78031 12.2672 8.68117 12.3337 8.57197 12.3791C8.46277 12.4246 8.34567 12.4479 8.2274 12.4479C8.10913 12.4479 7.99203 12.4246 7.88283 12.3791C7.77363 12.3337 7.67449 12.2672 7.5911 12.1833L7.5875 12.1797L5.045 9.6372C4.95904 9.55418 4.89048 9.45487 4.84331 9.34506C4.79614 9.23526 4.77131 9.11716 4.77027 8.99766C4.76924 8.87816 4.79201 8.75965 4.83726 8.64904C4.88251 8.53843 4.94934 8.43795 5.03384 8.35344C5.11835 8.26894 5.21883 8.20211 5.32944 8.15686C5.44005 8.11161 5.55856 8.08884 5.67806 8.08987C5.79756 8.09091 5.91566 8.11574 6.02546 8.16291C6.13527 8.21008 6.23458 8.27864 6.3176 8.3646L8.2274 10.2735L12.6824 5.8185V5.8176Z" fill="#175D35"/>
</svg>